<?xml version="1.0" encoding="utf-8"?>
<!-- Generator: Adobe Illustrator 16.0.0, SVG Export Plug-In . SVG Version: 6.00 Build 0)  -->
<!DOCTYPE svg PUBLIC "-//W3C//DTD SVG 1.1//EN" "http://www.w3.org/Graphics/SVG/1.1/DTD/svg11.dtd">
<svg version="1.1" id="Layer_1" xmlns="http://www.w3.org/2000/svg" xmlns:xlink="http://www.w3.org/1999/xlink" x="0px" y="0px"
	 width="128px" height="128px" viewBox="0 0 128 128" enable-background="new 0 0 128 128" xml:space="preserve">
<g>
	<path fill="#37AE5A" d="M63.998,128C99.288,128,128,99.291,128,64S99.288,0.001,63.998,0.001C28.708,0.001,0,28.71,0,64
		C0,99.29,28.708,128,63.998,128z M63.998,4.956c32.558,0,59.045,26.487,59.045,59.045s-26.487,59.044-59.045,59.044
		C31.44,123.044,4.954,96.558,4.954,64S31.44,4.956,63.998,4.956z"/>
	<path fill="#37AE5A" d="M63.999,119.818c30.827,0,55.82-24.988,55.82-55.817c0-30.827-24.992-55.817-55.82-55.817
		C33.171,8.183,8.18,33.173,8.18,64C8.18,94.829,33.171,119.818,63.999,119.818z M54.811,61.743V39.761h19.784v21.981h15.152
		L63.998,87.488L38.252,61.743H54.811z"/>
</g>
</svg>
