<?xml version="1.0" encoding="utf-8"?>
<!-- Generator: Adobe Illustrator 16.0.0, SVG Export Plug-In . SVG Version: 6.00 Build 0)  -->
<!DOCTYPE svg PUBLIC "-//W3C//DTD SVG 1.1//EN" "http://www.w3.org/Graphics/SVG/1.1/DTD/svg11.dtd">
<svg version="1.1" id="Layer_1" xmlns="http://www.w3.org/2000/svg" xmlns:xlink="http://www.w3.org/1999/xlink" x="0px" y="0px"
	 width="128px" height="128px" viewBox="0 0 128 128" enable-background="new 0 0 128 128" xml:space="preserve">
<g>
	<path fill="none" d="M402.481,269.929c-15.988,0-28.948,12.967-28.948,28.962c0,15.996,12.96,28.963,28.948,28.963
		c15.987,0,28.948-12.967,28.948-28.963C431.43,282.896,418.469,269.929,402.481,269.929z M402.783,326.09
		c-14.963,0-27.093-12.136-27.093-27.105c0-14.376,11.188-26.131,25.325-27.043v33.414c-2.298-2.312-7.508-7.543-7.512-7.543
		c-0.041,0-2.189,1.078-2.189,1.078l10.779,10.785l10.78-10.785c0,0-2.179-1.078-2.156-1.078c0.002,0-5.24,5.23-7.547,7.542v-33.467
		c14.783,0.208,26.705,12.256,26.705,27.097C429.876,313.954,417.746,326.09,402.783,326.09z"/>
</g>
<g>
	<path fill="none" d="M402.481,269.929c-15.988,0-28.948,12.967-28.948,28.962c0,15.996,12.96,28.963,28.948,28.963
		c15.987,0,28.948-12.967,28.948-28.963C431.43,282.896,418.469,269.929,402.481,269.929z M402.783,326.09
		c-14.963,0-27.093-12.136-27.093-27.105c0-14.376,11.188-26.131,25.325-27.043v33.414c-2.298-2.312-7.508-7.543-7.512-7.543
		c-0.041,0-2.189,1.078-2.189,1.078l10.779,10.785l10.78-10.785c0,0-2.179-1.078-2.156-1.078c0.002,0-5.24,5.23-7.547,7.542v-33.467
		c14.783,0.208,26.705,12.256,26.705,27.097C429.876,313.954,417.746,326.09,402.783,326.09z"/>
</g>
<g>
	<g>
		<path fill-rule="evenodd" clip-rule="evenodd" fill="#636363" d="M64,0C28.67,0,0.031,28.653,0.031,63.999
			C0.031,99.347,28.67,128,64,128c35.328,0,63.969-28.653,63.969-64.001C127.969,28.653,99.328,0,64,0z M64.667,124.104
			c-33.064,0-59.869-26.817-59.869-59.897c0-31.767,24.721-57.742,55.962-59.758v73.836c-5.092-5.121-16.591-16.667-16.599-16.667
			c-0.09,0-4.838,2.382-4.838,2.382l23.819,23.833l23.822-23.833c0,0-4.814-2.382-4.765-2.382c0.005,0-11.564,11.544-16.677,16.666
			V4.329c32.668,0.46,59.012,27.083,59.012,59.877C124.535,97.286,97.731,124.104,64.667,124.104z"/>
	</g>
</g>
</svg>
