<?xml version="1.0" encoding="utf-8"?>
<!-- Generator: Adobe Illustrator 16.0.0, SVG Export Plug-In . SVG Version: 6.00 Build 0)  -->
<!DOCTYPE svg PUBLIC "-//W3C//DTD SVG 1.1//EN" "http://www.w3.org/Graphics/SVG/1.1/DTD/svg11.dtd">
<svg version="1.1" id="Layer_1" xmlns="http://www.w3.org/2000/svg" xmlns:xlink="http://www.w3.org/1999/xlink" x="0px" y="0px"
	 width="128px" height="128px" viewBox="0 0 128 128" enable-background="new 0 0 128 128" xml:space="preserve">
<g>
	<g>
		<path fill-rule="evenodd" clip-rule="evenodd" fill="#999898" d="M84.251,34.284c0,4.44,3.629,8,8.1,8c4.472,0,8.101-3.56,8.101-8
			c0-4.439-3.629-8-8.101-8C87.88,26.284,84.251,29.845,84.251,34.284z M92.345,28.578c3.207,0,5.783,3.239,5.783,5.711
			c0,2.619-2.526,5.712-5.783,5.712c-3.186,0-5.784-2.917-5.784-5.712C86.561,31.432,89.337,28.578,92.345,28.578z M80.779,26.284
			c4.472,0,8.101-3.56,8.101-7.999c0-4.44-3.629-8-8.101-8c-4.471,0-8.1,3.56-8.1,8C72.68,22.725,76.309,26.284,80.779,26.284z
			 M80.773,12.578c3.207,0,5.783,3.237,5.783,5.712c0,2.618-2.526,5.711-5.783,5.711c-3.186,0-5.784-2.916-5.784-5.711
			C74.989,15.433,77.766,12.578,80.773,12.578z M56.584,39.751v-5.486c0-1.014-0.562-1.942-1.464-2.42
			c-0.904-0.476-2-0.423-2.849,0.137L35.62,42.954c-0.773,0.51-1.237,1.365-1.237,2.283c0,0.915,0.464,1.773,1.237,2.281
			l16.651,10.973c0.849,0.562,1.944,0.614,2.849,0.137c0.901-0.48,1.464-1.406,1.464-2.42v-5.486
			c7.176,0.007,12.585,4.667,15.26,11.019c1.128-1.764,1.392-3.604,1.392-5.532C73.235,47.119,65.78,39.751,56.584,39.751z
			 M53.808,48.006v5.501c0,0.827,0,2.105,0,2.105s-1.257-0.021-1.954-0.481l-13.029-7.945c-0.635-0.417-1.017-1.117-1.017-1.867
			c0-0.751,0.382-1.278,1.017-1.696l13.029-8.504c0.697-0.459,1.954-0.395,1.954-0.395s0,1.449,0,2.278v5.501
			c8.33,0,18.069,3.582,18.069,16.056C71.877,58.559,69.722,48.006,53.808,48.006z M63.421,18.285c4.475,0,8.101-3.562,8.101-8
			c0-4.44-3.626-8-8.101-8c-4.471,0-8.1,3.56-8.1,8C55.321,14.724,58.95,18.285,63.421,18.285z M63.415,4.576
			c3.207,0,5.786,3.239,5.786,5.712c0,2.621-2.526,5.713-5.786,5.713c-3.182,0-5.784-2.916-5.784-5.713
			C57.631,7.433,60.407,4.576,63.415,4.576z M54.311,21.734c-16.312,0-29.074,12.785-29.074,28.981
			c0,8.366,4.507,14.432,9.133,20.681c3.883,5.248,8.581,9.562,6.479,16.079c-1.987,6.159-6.1,11.473-7.126,19.941
			C33.215,111.582,38.021,128,54.166,128s21.521-11.973,21.646-20.191c0.158-10.249-2.929-25.601,3.369-37.06
			c3.376-6.143,6.738-12.665,6.738-20.215C85.919,34.341,70.62,21.734,54.311,21.734z M73.838,68.57
			c-1.754,3.07-4.725,9.021-4.991,15.957c-0.254,6.59,0.895,16.668,0.227,23.281c-0.628,6.228-1.697,16.763-14.907,16.763
			c-13.213,0-17.889-13.174-17.358-17.145c0.997-7.442,2.905-8.587,6.945-18.286c2.297-5.518-0.122-11.588-6.945-20.57
			c-4.297-5.66-6.726-10.207-6.726-17.854c0-15.183,8.937-24.151,24.229-24.151c15.71,0,24.87,8.788,24.87,23.97
			C79.181,57.791,77.177,62.72,73.838,68.57z M94.664,45.713c-4.472,0-8.101,3.56-8.101,8c0,4.439,3.629,8,8.101,8
			c4.471,0,8.1-3.561,8.1-8C102.764,49.272,99.135,45.713,94.664,45.713z M94.657,59.43c-3.182,0-5.784-2.917-5.784-5.712
			c0-2.857,2.777-5.712,5.784-5.712c3.208,0,5.784,3.239,5.784,5.712C100.441,56.338,97.914,59.43,94.657,59.43z M41.496,20.58
			c5.725,0,10.363-4.608,10.363-10.29C51.859,4.606,47.221,0,41.496,0S31.132,4.606,31.132,10.29
			C31.132,15.972,35.771,20.58,41.496,20.58z M41.424,3.429c3.849,0,6.941,3.89,6.941,6.859c0,3.147-3.029,6.861-6.941,6.861
			c-3.816,0-6.939-3.502-6.939-6.861C34.484,6.856,37.817,3.429,41.424,3.429z"/>
	</g>
</g>
</svg>
