<?xml version="1.0" encoding="utf-8"?>
<!-- Generator: Adobe Illustrator 16.0.0, SVG Export Plug-In . SVG Version: 6.00 Build 0)  -->
<!DOCTYPE svg PUBLIC "-//W3C//DTD SVG 1.1//EN" "http://www.w3.org/Graphics/SVG/1.1/DTD/svg11.dtd">
<svg version="1.1" id="Layer_1" xmlns="http://www.w3.org/2000/svg" xmlns:xlink="http://www.w3.org/1999/xlink" x="0px" y="0px"
	 width="128px" height="128px" viewBox="0 0 128 128" enable-background="new 0 0 128 128" xml:space="preserve">
<g>
	<g>
		<path fill-rule="evenodd" clip-rule="evenodd" fill="#787677" d="M63.999,0C28.671,0,0.03,28.653,0.03,64.001
			C0.03,99.346,28.671,128,63.999,128c35.33,0,63.971-28.654,63.971-63.999C127.97,28.653,99.329,0,63.999,0z M63.794,123.23
			c-33.064,0-59.869-26.817-59.869-59.896c0-33.082,26.805-59.898,59.869-59.898c32.775,0,59.386,26.355,59.847,59.04H49.725
			c5.118-5.114,16.656-16.689,16.656-16.686c0,0.049-2.382-4.765-2.382-4.765l-23.82,23.832l23.82,23.83c0,0,2.382-4.749,2.382-4.84
			c0-0.009-11.541-11.514-16.658-16.608h73.799C121.509,98.496,95.545,123.23,63.794,123.23z"/>
	</g>
</g>
</svg>
