<?xml version="1.0" encoding="utf-8"?>
<!-- Generator: Adobe Illustrator 16.0.0, SVG Export Plug-In . SVG Version: 6.00 Build 0)  -->
<!DOCTYPE svg PUBLIC "-//W3C//DTD SVG 1.1//EN" "http://www.w3.org/Graphics/SVG/1.1/DTD/svg11.dtd">
<svg version="1.1" id="Layer_1" xmlns="http://www.w3.org/2000/svg" xmlns:xlink="http://www.w3.org/1999/xlink" x="0px" y="0px"
	 width="128px" height="128px" viewBox="0 0 128 128" enable-background="new 0 0 128 128" xml:space="preserve">
<g>
	<g>
		<path fill="#706F70" d="M48.439,49.179c2.281,0,4.13-1.874,4.13-4.187c0-2.314-1.849-4.19-4.13-4.19s-4.13,1.876-4.13,4.19
			C44.309,47.306,46.158,49.179,48.439,49.179z M79.448,78.673c-2.281,0-4.13,1.876-4.13,4.19c0,2.313,1.849,4.187,4.13,4.187
			s4.13-1.873,4.13-4.187C83.578,80.549,81.729,78.673,79.448,78.673z M117.614,34.544c-0.516,0-1.743,0.05-2.984,1.311
			c-0.683,0.693-1.085,1.486-1.085,2.879v35.842c-0.005,0.805-0.273,1.705-0.793,2.464c-0.013,0.02-0.025,0.037-0.04,0.055
			c-0.003,0.005-0.005,0.01-0.011,0.015c-0.175,0.235-0.375,0.448-0.595,0.641c0.015-0.003,0.027-0.005,0.042-0.008
			c-0.508,0.476-1.15,0.828-1.923,0.971c-0.088,0.003-0.176,0.01-0.266,0.01c-0.178,0.025-0.357,0.043-0.543,0.043
			c-0.435,0-0.855-0.072-1.25-0.2c3.184,4.896,8.597,8.162,14.772,8.322C125.956,83.521,128,79.025,128,73.83V34.544H117.614z
			 M105.955,76.847c-0.172-0.27-0.314-0.562-0.425-0.867l-0.061-0.181l-5.475-15.956l-1.401-4.08l-2.882-8.402l-0.067-0.143
			c-1.113-3.126-3.6-6.536-7.081-9.025c-8.185,0.25-15.011,5.958-17.064,13.66c1.411-1.671,3.439-2.592,5.101-2.626
			c6.476-0.135,7.602,6.053,7.602,6.053l5.588,22.925c0,0,3.282,15.176,19.844,15.176c4.177,0,8.755-2.006,12.294-5.44
			C114.87,87.397,108.869,83.016,105.955,76.847z M4.97,41.038C1.881,44.514,0,49.117,0,54.167v39.289h10.383
			c0.515,0,1.743-0.053,2.986-1.311c0.683-0.693,1.086-1.488,1.086-2.879V53.424c0.002-0.808,0.272-1.706,0.793-2.466
			c0.012-0.018,0.025-0.035,0.037-0.055c0.005-0.005,0.008-0.01,0.013-0.015c0.175-0.232,0.375-0.448,0.593-0.638
			c-0.012,0-0.027,0.005-0.04,0.005c0.666-0.62,1.563-1.041,2.682-1.041h0.042c0.463,0,0.905,0.083,1.321,0.228
			C16.702,44.477,11.224,41.165,4.97,41.038z M14.438,53.387c0-0.01,0-0.018,0-0.018l0.002,0.018H14.438z M87.018,37.193
			c-2.712-1.588-5.908-2.611-9.455-2.611c-10.686,0-19.348,8.787-19.348,19.625l0.002,7.784c0,0-0.002,9.405-0.002,9.415
			c0,0.153-0.007,0.306-0.018,0.455c-0.26,9.931-7.784,18.025-17.384,19.001c4.46,2.554,8.89,2.554,9.625,2.554
			c10.684,0,19.346-8.785,19.346-19.623V56.699h-0.008C69.775,46.583,77.322,38.256,87.018,37.193z M56.516,76.069
			c-0.763,0.923-1.746,1.65-2.867,2.108c-0.127,0.065-0.26,0.128-0.39,0.19c-0.726,0.242-1.741,0.455-2.927,0.353
			c-2.992-0.255-5.465-2.384-6.329-5.198l-0.09-0.332l-5.703-23.398l-0.04-0.165c-0.095-0.415-0.205-0.825-0.33-1.23
			c-2.429-8.02-9.791-13.853-18.495-13.853c-5.183,0-9.883,2.071-13.357,5.436c7.279,0.522,13.442,5.13,16.279,11.576
			c0.053,0.105,0.1,0.213,0.145,0.323c0.311,0.74,0.573,1.506,0.793,2.291l4.8,13.985l1.398,4.08c0,0,3.042,8.775,3.086,8.89
			c0,0,1.499,4.005,5.065,7.339c0.55,0.516,1.113,0.971,1.683,1.384C47.543,89.677,54.485,83.886,56.516,76.069z"/>
	</g>
</g>
</svg>
