<?xml version="1.0" encoding="utf-8"?>
<!-- Generator: Adobe Illustrator 16.0.0, SVG Export Plug-In . SVG Version: 6.00 Build 0)  -->
<!DOCTYPE svg PUBLIC "-//W3C//DTD SVG 1.1//EN" "http://www.w3.org/Graphics/SVG/1.1/DTD/svg11.dtd">
<svg version="1.1" id="Layer_1" xmlns="http://www.w3.org/2000/svg" xmlns:xlink="http://www.w3.org/1999/xlink" x="0px" y="0px"
	 width="128px" height="128px" viewBox="0 0 128 128" enable-background="new 0 0 128 128" xml:space="preserve">
<g>
	<path fill="#37AE5A" d="M128,64c0-35.29-28.71-64.001-64-64.001C28.71-0.001,0.001,28.71,0.001,64
		c0,35.291,28.709,63.999,63.999,63.999C99.289,127.999,128,99.291,128,64z M4.955,64C4.955,31.442,31.442,4.955,64,4.955
		c32.557,0,59.043,26.487,59.043,59.045S96.557,123.044,64,123.044C31.442,123.044,4.955,96.558,4.955,64z"/>
	<path fill="#37AE5A" d="M119.817,63.999c0-30.827-24.988-55.82-55.817-55.82c-30.827,0-55.817,24.992-55.817,55.82
		c0,30.829,24.99,55.82,55.817,55.82C94.828,119.819,119.817,94.828,119.817,63.999z M61.742,73.188H39.761V53.404h21.981V38.251
		L87.487,64L61.742,89.747V73.188z"/>
</g>
</svg>
