<?xml version="1.0" encoding="utf-8"?>
<!-- Generator: Adobe Illustrator 16.0.0, SVG Export Plug-In . SVG Version: 6.00 Build 0)  -->
<!DOCTYPE svg PUBLIC "-//W3C//DTD SVG 1.1//EN" "http://www.w3.org/Graphics/SVG/1.1/DTD/svg11.dtd">
<svg version="1.1" id="Layer_1" xmlns="http://www.w3.org/2000/svg" xmlns:xlink="http://www.w3.org/1999/xlink" x="0px" y="0px"
	 width="128px" height="128px" viewBox="0 0 128 128" enable-background="new 0 0 128 128" xml:space="preserve">
<g>
	<g>
		<path fill="#9A9897" d="M124.598,16.784l-26.236-6.021c-0.944-0.222-1.931-0.115-2.819,0.281L64,24.906L36.521,13.309
			c-1.049-0.434-2.229-0.451-3.289-0.038L2.799,25.08C1.111,25.736,0,27.354,0,29.159v83.178c0,1.444,0.719,2.791,1.917,3.61
			c1.195,0.819,2.722,0.986,4.073,0.459l29.566-13.278L64,117.351l35.556-14.223l21.333,7.111c1.306,0.299,4.403-1.764,5.459-2.59
			c1.041-0.827,1.652-2.091,1.652-3.424V21.052C128,19.01,126.583,17.243,124.598,16.784z M113.777,96.017l-14.222-7.11L64,103.128
			L35.556,88.906l-21.333,7.11V39.128l21.333-14.222L64,39.128l35.556-14.222l14.222,7.111V96.017z M27.111,70.517
			c-1.274-0.697-2.879-0.229-3.58,1.042c-1.122,2.042-1.781,3.403-1.781,3.403c-0.632,1.305-0.083,2.875,1.226,3.514
			c0.372,0.166,0.764,0.257,1.149,0.257c0.976,0,1.92-0.549,2.375-1.486c0.014-0.034,0.625-1.284,1.66-3.159
			C28.857,72.809,28.389,71.219,27.111,70.517z M31.788,59.184c-0.747,0.875-1.517,1.851-2.285,2.899
			c-0.857,1.17-0.604,2.816,0.569,3.674c0.472,0.337,1.018,0.503,1.556,0.503c0.816,0,1.615-0.375,2.132-1.076
			c0.698-0.944,1.389-1.83,2.052-2.611c0.941-1.108,0.806-2.764-0.309-3.702C34.393,57.934,32.729,58.076,31.788,59.184z
			 M49.406,55.739c-2.247-2.934-4.799-3.552-6.542-3.552c-0.483,0-0.983,0.045-1.483,0.139c-1.431,0.267-2.372,1.639-2.104,3.066
			c0.271,1.423,1.642,2.361,3.08,2.097c0.167-0.035,0.34-0.049,0.507-0.049c0.517,0,1.326,0.149,2.351,1.486l0.271,0.368
			c0.517,0.698,1.319,1.062,2.125,1.062c0.545,0,1.09-0.17,1.566-0.511c1.17-0.864,1.42-2.514,0.552-3.677L49.406,55.739z
			 M55.215,65.149c-0.715-1.264-2.327-1.712-3.59-1.007c-1.271,0.715-1.722,2.316-1.01,3.58c1.156,2.042,2.292,4.038,3.517,5.976
			c0.503,0.792,1.361,1.223,2.233,1.223c0.482,0,0.972-0.132,1.406-0.403c1.229-0.777,1.601-2.402,0.823-3.628
			C57.438,69.065,56.333,67.132,55.215,65.149z M84.049,69.938c-1.16-0.879-2.812-0.653-3.694,0.507
			c-1.444,1.899-2.861,3.518-4.202,4.822c-1.041,1.015-1.062,2.674-0.041,3.716c0.514,0.521,1.194,0.792,1.882,0.792
			c0.667,0,1.326-0.25,1.84-0.743c1.528-1.486,3.118-3.306,4.723-5.417C85.438,72.462,85.208,70.812,84.049,69.938z M69.014,79.406
			c-1.549,0.132-2.989-0.348-4.524-1.473c-1.17-0.875-2.823-0.625-3.691,0.542c-0.868,1.159-0.629,2.806,0.542,3.666
			c2.278,1.688,4.684,2.542,7.153,2.542c0.326,0,0.659-0.014,0.993-0.049c1.458-0.132,2.521-1.409,2.389-2.854
			S70.444,79.26,69.014,79.406z M91.069,58.132c-1.271-0.712-2.875-0.264-3.59,0.996c-0.562,1-1.153,1.997-1.736,2.962
			c-0.75,1.247-0.348,2.858,0.902,3.604c0.424,0.257,0.896,0.375,1.354,0.375c0.896,0,1.764-0.448,2.264-1.271
			c0.611-1.01,1.223-2.052,1.806-3.09C92.785,60.444,92.333,58.843,91.069,58.132z M95.473,39.94
			c-0.556-1.34-2.098-1.965-3.445-1.41c-1.347,0.559-1.979,2.097-1.416,3.431l1.757,4.194l-4.216,1.753
			c-1.34,0.559-1.972,2.098-1.409,3.438c0.424,1.004,1.402,1.615,2.438,1.615c0.333,0,0.681-0.066,1.014-0.208L94.402,51
			l1.758,4.195c0.423,1.01,1.402,1.614,2.438,1.614c0.333,0,0.68-0.066,1.014-0.201c1.34-0.559,1.979-2.097,1.416-3.438
			l-1.757-4.191l4.209-1.753c1.34-0.559,1.979-2.094,1.409-3.438c-0.556-1.333-2.104-1.969-3.444-1.41l-4.208,1.754L95.473,39.94z"
			/>
	</g>
</g>
</svg>
