<?xml version="1.0" encoding="utf-8"?>
<!-- Generator: Adobe Illustrator 16.0.0, SVG Export Plug-In . SVG Version: 6.00 Build 0)  -->
<!DOCTYPE svg PUBLIC "-//W3C//DTD SVG 1.1//EN" "http://www.w3.org/Graphics/SVG/1.1/DTD/svg11.dtd">
<svg version="1.1" id="Layer_1" xmlns="http://www.w3.org/2000/svg" xmlns:xlink="http://www.w3.org/1999/xlink" x="0px" y="0px"
	 width="128px" height="128px" viewBox="0 0 128 128" enable-background="new 0 0 128 128" xml:space="preserve">
<g>
	<g>
		<path fill-rule="evenodd" clip-rule="evenodd" fill="#757575" d="M64,0C28.672,0,0.031,28.653,0.031,64.001
			C0.031,99.346,28.672,128,64,128c35.33,0,63.969-28.654,63.969-63.999C127.969,28.653,99.33,0,64,0z M65.525,123.671V49.718
			c5.112,5.122,16.68,16.665,16.675,16.665c-0.047,0,4.765-2.382,4.765-2.382L63.143,40.168L39.324,64.001
			c0,0,4.748,2.382,4.838,2.382c0.008,0,11.505-11.545,16.599-16.666v73.835C29.519,121.536,4.798,95.561,4.798,63.794
			c0-33.08,26.804-59.896,59.869-59.896s59.868,26.816,59.868,59.896C124.535,96.587,98.192,123.209,65.525,123.671z"/>
	</g>
</g>
</svg>
