<?xml version="1.0" encoding="utf-8"?>
<!-- Generator: Adobe Illustrator 21.0.0, SVG Export Plug-In . SVG Version: 6.00 Build 0)  -->
<svg version="1.1" id="Layer_1" xmlns="http://www.w3.org/2000/svg" xmlns:xlink="http://www.w3.org/1999/xlink" x="0px" y="0px"
	 width="512px" height="213.7px" viewBox="0 0 512 213.7" style="enable-background:new 0 0 512 213.7;" xml:space="preserve">
<style type="text/css">
	.st0{fill:#977857;}
</style>
<g id="XMLID_29_">
	<path id="XMLID_28_" class="st0" d="M35.4,141.6V35.4h30.4c11.1,0,20.7,5.8,24,15.7l34.3,90.5h39.8L124.2,37.4
		c-1.8-8-14.1-37.3-48.9-37.3H0v141.4h35.4V141.6z"/>
	<path id="XMLID_27_" class="st0" d="M476.6,0.1v106.2h-30.4c-11.7,0-20.5-7.1-24-15.7L387.9,0.1h-39.8l39.7,104.2
		c4.3,14,16.9,37.3,48.9,37.3H512V0.1H476.6z"/>
	<polygon id="XMLID_26_" class="st0" points="236.9,141.6 200.1,141.6 186.5,106.2 223.4,106.2 	"/>
	<path id="XMLID_25_" class="st0" d="M327.9,111.1c0,0-36.9-97.6-37.5-98.6C285.6,4.7,278.3-0.1,268.1,0h-30.9
		c0,0,12.1,8.9,19.9,30.2c0,0,35.3,92.9,36.1,95c3.8,9.9,12.5,16.3,20.6,16.3H348C347.9,141.6,335.7,132.5,327.9,111.1"/>
	<path id="XMLID_62_" class="st0" d="M87,192.9c0,2.2-0.3,4.1-0.8,5.7c-0.5,1.7-1.2,3-2.2,4.1c-0.9,1.1-2.1,1.9-3.4,2.5
		s-2.8,0.8-4.4,0.8c-1.3,0-2.6-0.1-3.8-0.4s-2.1-0.6-2.8-1v-23.7c0.8-0.4,1.7-0.7,2.9-1c1.2-0.2,2.4-0.4,3.7-0.4
		c1.6,0,3.1,0.3,4.4,0.8c1.3,0.6,2.5,1.4,3.4,2.5s1.7,2.5,2.2,4.1C86.8,188.8,87,190.7,87,192.9 M83.2,192.9c0-1.7-0.2-3.2-0.5-4.5
		c-0.3-1.2-0.8-2.3-1.4-3.1c-0.6-0.8-1.3-1.4-2.1-1.8c-0.8-0.4-1.7-0.6-2.7-0.6c-0.6,0-1.1,0-1.7,0.1c-0.5,0.1-0.9,0.2-1.3,0.4v18.7
		c0.3,0.1,0.7,0.3,1.2,0.4s1.1,0.1,1.7,0.1c0.9,0,1.8-0.2,2.7-0.6c0.8-0.4,1.5-1,2.1-1.8s1.1-1.8,1.4-3.1
		C83,196.1,83.2,194.6,83.2,192.9"/>
	<path id="XMLID_59_" class="st0" d="M104.1,180.9c0,0.6-0.2,1.1-0.6,1.6c-0.4,0.4-0.9,0.6-1.6,0.6c-0.6,0-1.1-0.2-1.6-0.6
		c-0.4-0.4-0.6-0.9-0.6-1.6c0-0.6,0.2-1.1,0.6-1.6c0.4-0.4,0.9-0.6,1.6-0.6c0.6,0,1.1,0.2,1.6,0.6
		C103.9,179.8,104.1,180.3,104.1,180.9 M100.1,186.6h3.8v19.1h-3.8V186.6z"/>
	<path id="XMLID_56_" class="st0" d="M132.9,205.6c0,2.6-0.7,4.6-2.1,6c-1.4,1.4-3.3,2.1-5.7,2.1c-1.3,0-2.6-0.1-3.7-0.4
		s-2.1-0.6-2.8-1l1.1-3c0.6,0.3,1.3,0.6,2.2,0.8c0.9,0.2,1.9,0.4,2.9,0.4c1.5,0,2.6-0.4,3.4-1.2c0.7-0.8,1.1-2,1.1-3.5v-1.4
		c-0.5,0.2-1.1,0.4-1.7,0.6c-0.7,0.1-1.3,0.2-2,0.2c-1.2,0-2.2-0.2-3.2-0.6s-1.8-1-2.5-1.8s-1.2-1.7-1.6-2.9
		c-0.4-1.1-0.6-2.4-0.6-3.9c0-1.7,0.2-3.1,0.7-4.3c0.4-1.2,1.1-2.2,1.9-3s1.7-1.4,2.9-1.8c1.1-0.4,2.4-0.6,3.7-0.6
		c1.2,0,2.4,0.1,3.4,0.4c1.1,0.2,2,0.6,2.7,1L132.9,205.6L132.9,205.6z M129.3,189.7c-0.3-0.1-0.7-0.2-1.2-0.3
		c-0.5-0.1-1-0.2-1.5-0.2c-0.7,0-1.4,0.1-2,0.4c-0.6,0.2-1.2,0.6-1.6,1.2c-0.5,0.5-0.8,1.2-1.1,2c-0.3,0.8-0.4,1.8-0.4,3
		c0,2.1,0.4,3.7,1.3,4.7s2,1.6,3.5,1.6c0.5,0,1.1-0.1,1.6-0.2c0.6-0.1,1-0.3,1.4-0.5V189.7z"/>
	<path id="XMLID_53_" class="st0" d="M151.6,180.9c0,0.6-0.2,1.1-0.6,1.6c-0.4,0.4-0.9,0.6-1.6,0.6c-0.6,0-1.1-0.2-1.6-0.6
		c-0.4-0.4-0.6-0.9-0.6-1.6c0-0.6,0.2-1.1,0.6-1.6c0.4-0.4,0.9-0.6,1.6-0.6c0.6,0,1.1,0.2,1.6,0.6
		C151.4,179.8,151.6,180.3,151.6,180.9 M147.5,186.6h3.8v19.1h-3.8V186.6z"/>
	<path id="XMLID_16_" class="st0" d="M173.5,205.8c-0.4,0.1-0.9,0.1-1.3,0.1c-1.6,0-2.9-0.5-3.7-1.4c-0.9-0.9-1.3-2.3-1.3-4.2v-10.8
		h-2.5v-2.9h2.5v-4.4l3.6-1.2v5.6h3.7v2.9h-3.7v10.6c0,0.9,0.2,1.5,0.7,1.9s1.1,0.6,1.7,0.6c0.2,0,0.4,0,0.7-0.1
		c0.2,0,0.4-0.1,0.6-0.2v3.2C174.2,205.6,173.9,205.7,173.5,205.8"/>
	<path id="XMLID_49_" class="st0" d="M201.5,204.7c-0.7,0.4-1.6,0.7-2.8,0.9c-1.2,0.3-2.5,0.4-3.8,0.4c-2.7,0-4.6-0.5-6-1.6
		c-1.3-1.1-2-2.5-2-4.4c0-1.3,0.3-2.4,0.9-3.2c0.6-0.8,1.5-1.5,2.5-2s2.2-0.8,3.5-1s2.7-0.3,4.1-0.4v-1.2c0-1.2-0.4-2.1-1-2.5
		c-0.7-0.5-1.6-0.7-2.8-0.7c-0.9,0-1.8,0.1-2.7,0.4c-0.9,0.2-1.7,0.5-2.3,0.8l-1-2.7c0.7-0.3,1.7-0.6,2.8-0.9s2.3-0.4,3.6-0.4
		c1.1,0,2.1,0.1,2.9,0.4c0.9,0.2,1.6,0.6,2.2,1.1c0.6,0.5,1.1,1.2,1.4,2c0.3,0.8,0.5,1.8,0.5,3L201.5,204.7L201.5,204.7z M198,196.1
		c-0.9,0-1.8,0.1-2.7,0.2s-1.7,0.3-2.4,0.6c-0.7,0.3-1.3,0.6-1.7,1.1s-0.6,1.2-0.6,2c0,1,0.4,1.8,1.1,2.4c0.7,0.6,1.8,0.9,3.2,0.9
		c0.6,0,1.2,0,1.8-0.1s1-0.2,1.3-0.4L198,196.1L198,196.1z"/>
	<rect id="XMLID_13_" x="216.1" y="177.9" class="st0" width="3.8" height="27.8"/>
	<path id="XMLID_12_" class="st0" d="M263.4,205.7c-0.9,0.2-1.9,0.4-3.1,0.4c-1.3,0-2.6-0.3-3.7-0.8c-1.2-0.5-2.2-1.4-3.1-2.4
		c-0.9-1.1-1.6-2.5-2.1-4.1c-0.5-1.7-0.8-3.6-0.8-5.8c0-2.3,0.3-4.2,0.8-5.9c0.5-1.7,1.2-3,2.1-4.1c0.9-1.1,1.9-1.9,3.1-2.4
		s2.4-0.8,3.7-0.8c1.1,0,2.1,0.1,3,0.4s1.7,0.6,2.2,1l-1.2,3.2c-0.4-0.3-0.9-0.5-1.5-0.8c-0.7-0.2-1.4-0.3-2.1-0.3
		c-0.9,0-1.7,0.2-2.4,0.6c-0.7,0.4-1.4,1-1.9,1.8c-0.6,0.8-1,1.8-1.3,3s-0.5,2.6-0.5,4.3c0,1.6,0.2,3,0.5,4.3c0.3,1.2,0.8,2.2,1.3,3
		c0.6,0.8,1.2,1.4,1.9,1.8c0.7,0.4,1.6,0.6,2.4,0.6c0.7,0,1.4-0.1,2.1-0.3c0.6-0.2,1.2-0.4,1.5-0.7l1.2,3.3
		C265,205.1,264.3,205.5,263.4,205.7"/>
	<path id="XMLID_11_" class="st0" d="M287.6,189.6c-0.5-0.1-1.2-0.2-1.8-0.2c-0.5,0-1.1,0-1.6,0.1s-1,0.2-1.3,0.4v15.8h-3.7v-18.1
		c0.9-0.4,2-0.7,3.2-1c1.2-0.2,2.5-0.4,3.9-0.4c0.4,0,0.8,0,1.1,0c0.4,0,0.7,0.1,0.9,0.1L287.6,189.6z"/>
	<path id="XMLID_43_" class="st0" d="M316.5,196.1l-12.2,1.8c0.2,1.7,0.8,3,1.8,3.9s2.3,1.3,3.8,1.3c0.9,0,1.8-0.1,2.7-0.3
		c0.9-0.2,1.7-0.5,2.3-0.8l1.1,2.9c-0.7,0.4-1.6,0.7-2.8,1c-1.1,0.2-2.3,0.4-3.6,0.4c-1.5,0-2.8-0.2-3.9-0.7s-2.1-1.1-2.8-2
		c-0.8-0.9-1.3-1.9-1.7-3.1c-0.4-1.2-0.6-2.6-0.6-4.1s0.2-2.8,0.6-4s0.9-2.3,1.6-3.1c0.7-0.9,1.6-1.6,2.6-2c1-0.5,2.2-0.7,3.5-0.7
		c2.4,0,4.3,0.8,5.6,2.3c1.3,1.5,2,3.6,2,6.1V196.1z M313,194c0-1.7-0.4-2.9-1.1-3.7c-0.7-0.8-1.7-1.2-3-1.2c-1.4,0-2.6,0.5-3.4,1.6
		c-0.9,1.1-1.3,2.6-1.4,4.6L313,194z"/>
	<path id="XMLID_40_" class="st0" d="M344,204.7c-0.7,0.4-1.6,0.7-2.8,0.9c-1.2,0.3-2.5,0.4-3.8,0.4c-2.7,0-4.6-0.5-6-1.6
		c-1.3-1.1-2-2.5-2-4.4c0-1.3,0.3-2.4,0.9-3.2c0.6-0.8,1.5-1.5,2.5-2s2.2-0.8,3.5-1s2.7-0.3,4.1-0.4v-1.2c0-1.2-0.4-2.1-1-2.5
		c-0.7-0.5-1.6-0.7-2.8-0.7c-0.9,0-1.8,0.1-2.7,0.4c-0.9,0.2-1.7,0.5-2.3,0.8l-1-2.7c0.7-0.3,1.7-0.6,2.8-0.9
		c1.1-0.3,2.3-0.4,3.6-0.4c1.1,0,2.1,0.1,2.9,0.4c0.9,0.2,1.6,0.6,2.2,1.1s1.1,1.2,1.4,2s0.5,1.8,0.5,3L344,204.7L344,204.7z
		 M340.4,196.1c-0.9,0-1.8,0.1-2.7,0.2c-0.9,0.1-1.7,0.3-2.4,0.6c-0.7,0.3-1.3,0.6-1.7,1.1c-0.4,0.5-0.6,1.2-0.6,2
		c0,1,0.4,1.8,1.1,2.4s1.8,0.9,3.2,0.9c0.6,0,1.2,0,1.8-0.1s1-0.2,1.3-0.4L340.4,196.1L340.4,196.1z"/>
	<path id="XMLID_6_" class="st0" d="M366.1,205.8c-0.4,0.1-0.9,0.1-1.3,0.1c-1.6,0-2.9-0.5-3.7-1.4c-0.9-0.9-1.3-2.3-1.3-4.2v-10.8
		h-2.5v-2.9h2.5v-4.4l3.6-1.2v5.6h3.7v2.9h-3.7v10.6c0,0.9,0.2,1.5,0.7,1.9s1.1,0.6,1.7,0.6c0.2,0,0.4,0,0.7-0.1
		c0.2,0,0.4-0.1,0.6-0.2v3.2C366.8,205.6,366.5,205.7,366.1,205.8"/>
	<path id="XMLID_36_" class="st0" d="M384.7,180.9c0,0.6-0.2,1.1-0.6,1.6c-0.4,0.4-0.9,0.6-1.6,0.6s-1.1-0.2-1.6-0.6
		c-0.4-0.4-0.6-0.9-0.6-1.6c0-0.6,0.2-1.1,0.6-1.6c0.4-0.4,0.9-0.6,1.6-0.6s1.1,0.2,1.6,0.6C384.4,179.8,384.7,180.3,384.7,180.9
		 M380.6,186.6h3.8v19.1h-3.8V186.6z"/>
	<path id="XMLID_3_" class="st0" d="M408.4,205.7h-4.3l-6.7-19.1h4.1l3.9,12.7c0.1,0.4,0.2,0.7,0.3,1.1c0.1,0.4,0.2,0.7,0.2,1
		c0.1,0.3,0.2,0.7,0.2,0.9h0.1c0-0.3,0.1-0.6,0.2-0.9c0-0.3,0.1-0.6,0.2-1s0.2-0.7,0.3-1.1l3.9-12.7h4.1L408.4,205.7z"/>
	<path id="XMLID_32_" class="st0" d="M442.3,196.1l-12.2,1.8c0.2,1.7,0.8,3,1.8,3.9s2.3,1.3,3.8,1.3c0.9,0,1.8-0.1,2.8-0.3
		c0.9-0.2,1.7-0.5,2.3-0.8l1.1,2.9c-0.7,0.4-1.6,0.7-2.8,1c-1.1,0.2-2.3,0.4-3.6,0.4c-1.5,0-2.8-0.2-3.9-0.7s-2.1-1.1-2.8-2
		c-0.8-0.9-1.3-1.9-1.7-3.1c-0.4-1.2-0.6-2.6-0.6-4.1s0.2-2.8,0.6-4s0.9-2.3,1.6-3.1c0.7-0.9,1.6-1.6,2.6-2c1-0.5,2.2-0.7,3.5-0.7
		c2.4,0,4.3,0.8,5.6,2.3c1.3,1.5,2,3.6,2,6.1L442.3,196.1L442.3,196.1z M438.8,194c0-1.7-0.4-2.9-1.1-3.7c-0.7-0.8-1.7-1.2-3-1.2
		c-1.4,0-2.6,0.5-3.4,1.6c-0.9,1.1-1.3,2.6-1.4,4.6L438.8,194z"/>
</g>
</svg>
